<?xml version="1.0" standalone="no"?>
<!DOCTYPE svg PUBLIC "-//W3C//DTD SVG 20010904//EN"
 "http://www.w3.org/TR/2001/REC-SVG-20010904/DTD/svg10.dtd">
<svg version="1.0" xmlns="http://www.w3.org/2000/svg"
 width="300.000000pt" height="262.000000pt" viewBox="0 0 300.000000 262.000000"
 preserveAspectRatio="xMidYMid meet">
<metadata>
Created by potrace 1.10, written by Peter Selinger 2001-2011
</metadata>
<g transform="translate(0.000000,262.000000) scale(0.100000,-0.100000)"
fill="#000000" stroke="none">
<path d="M1390 2326 c-270 -157 -796 -460 -817 -470 l-23 -11 0 -565 1 -565
101 -57 101 -58 84 50 c47 28 87 50 89 50 2 0 5 -46 6 -103 l3 -102 102 -58
101 -58 82 50 c45 28 85 51 88 51 4 0 7 -46 7 -102 l0 -103 102 -58 102 -58
98 57 c54 31 100 58 102 60 2 2 3 48 2 104 -1 55 0 100 3 100 2 0 43 -23 90
-51 l86 -50 106 62 106 62 -4 99 c-2 54 -2 98 0 98 2 0 43 -23 90 -51 77 -45
89 -49 107 -38 11 7 56 34 100 59 l80 47 0 563 0 562 -130 76 c-71 41 -236
135 -365 210 -129 74 -288 166 -352 203 -64 38 -118 69 -120 69 -2 -1 -59 -34
-128 -74z m322 -72 c295 -171 495 -286 616 -355 61 -35 112 -66 112 -69 0 -4
-15 -14 -32 -23 -18 -9 -54 -28 -79 -42 l-46 -26 -54 32 c-30 17 -160 92 -289
167 -129 74 -277 159 -328 189 l-93 53 -202 -117 c-111 -64 -283 -164 -382
-221 l-180 -104 -50 27 c-27 15 -65 37 -84 48 l-34 20 39 20 c22 11 95 52 164
92 69 40 232 134 363 209 131 75 263 152 295 171 31 19 62 34 69 35 6 0 94
-48 195 -106z m190 -330 c176 -102 331 -191 344 -196 l24 -11 0 -538 0 -537
-80 45 -80 46 0 442 0 442 -222 128 c-123 70 -253 146 -290 168 l-68 39 0 95
0 95 25 -16 c14 -9 170 -100 347 -202z m-410 103 c-3 -71 -5 -74 -35 -92 -18
-10 -72 -41 -122 -70 -49 -29 -126 -73 -170 -98 -44 -25 -84 -50 -90 -54 -5
-5 -21 -13 -35 -19 -43 -19 -90 -65 -105 -101 -12 -29 -15 -107 -15 -437 0
-220 -4 -406 -8 -411 -11 -17 -99 -65 -116 -65 -15 0 -16 51 -14 517 l3 516
67 36 c37 20 73 42 80 49 6 6 16 12 20 12 8 0 119 63 272 154 37 23 94 55 125
71 31 17 71 40 90 52 50 31 56 24 53 -60z m237 -226 c113 -66 234 -134 268
-153 35 -18 63 -35 63 -39 0 -3 -19 -15 -42 -27 -24 -11 -59 -31 -79 -43 l-36
-21 -192 110 -191 110 -191 -110 c-141 -81 -196 -108 -208 -101 -51 26 -141
79 -141 83 0 3 78 49 173 103 94 54 213 122 262 152 50 29 94 54 99 54 5 1
102 -53 215 -118z m-1058 -51 l69 -41 0 -535 0 -536 -32 21 c-18 12 -54 33
-80 48 l-48 26 0 518 c0 284 -3 525 -7 535 -8 22 6 17 98 -36z m1774 -494 l0
-509 -46 -33 c-92 -64 -84 -108 -87 472 -2 572 -9 520 70 564 67 38 63 68 63
-494z m-729 333 l174 -101 0 -534 0 -535 -42 26 c-24 14 -62 36 -86 48 l-42
21 1 441 1 440 -96 58 -96 59 0 89 c0 49 3 89 6 89 4 0 85 -45 180 -101z
m-224 18 c0 -31 -1 -66 -1 -77 -1 -13 -19 -29 -53 -49 -80 -45 -97 -59 -116
-99 -15 -33 -18 -85 -22 -451 l-5 -414 -35 -20 c-69 -39 -84 -46 -92 -41 -4 3
-8 234 -8 514 l0 509 32 23 c18 13 42 28 53 34 96 51 212 118 220 125 19 19
27 2 27 -54z m-458 -67 c36 -22 70 -40 76 -40 7 0 10 -180 10 -540 l0 -539
-80 47 -80 47 0 533 c0 292 2 532 4 532 2 0 34 -18 70 -40z m1035 -895 c0 -49
-2 -98 -5 -107 -6 -19 -84 -75 -111 -80 -17 -3 -18 25 -21 514 l-2 516 62 35
63 35 7 -411 c4 -227 7 -452 7 -502z m-474 793 c41 -24 73 -47 72 -52 -2 -4
-36 -26 -77 -48 l-75 -40 -77 43 c-43 24 -78 46 -77 49 0 5 139 87 152 89 4 0
41 -18 82 -41z m-168 -123 l72 -40 3 -533 c2 -294 2 -535 0 -537 -2 -2 -39 18
-82 43 l-80 47 0 533 c0 294 3 532 8 530 4 -1 39 -21 79 -43z m255 -412 c2
-236 1 -468 -2 -516 l-5 -88 -54 -34 c-30 -18 -61 -31 -68 -28 -11 4 -13 95
-11 516 l3 511 55 33 c30 18 60 33 67 33 9 0 12 -107 15 -427z"/>
</g>
</svg>
